<!-- Generated by IcoMoon.io -->
<svg version="1.1" xmlns="http://www.w3.org/2000/svg" width="32" height="32" viewBox="0 0 32 32">
<title>Icon-awesome-instagram</title>
<path fill="#fff" d="M16.007 7.795c-4.531 0-8.204 3.673-8.204 8.204s3.673 8.204 8.204 8.204c4.531 0 8.204-3.673 8.204-8.204v0c0-0.004 0-0.009 0-0.013 0-4.524-3.667-8.191-8.191-8.191-0.005 0-0.009 0-0.014 0h0.001zM16.007 21.333c-2.946 0-5.334-2.388-5.334-5.334s2.388-5.334 5.334-5.334c2.946 0 5.334 2.388 5.334 5.334v0c-0.006 2.943-2.39 5.328-5.333 5.334h-0.001zM26.46 7.46c0 1.057-0.857 1.913-1.913 1.913s-1.913-0.857-1.913-1.913c0-1.056 0.856-1.913 1.912-1.913h0c0.002 0 0.003 0 0.005 0 1.054 0 1.909 0.855 1.909 1.909 0 0.001 0 0.003 0 0.004v-0zM31.892 9.406c0.001-0.059 0.002-0.129 0.002-0.199 0-2.521-0.985-4.811-2.591-6.508l0.004 0.004c-1.701-1.602-4-2.586-6.528-2.586-0.061 0-0.122 0.001-0.183 0.002l0.009-0c-2.64-0.15-10.561-0.15-13.202 0-0.056-0.001-0.121-0.002-0.187-0.002-2.523 0-4.817 0.982-6.52 2.584l0.005-0.005c-1.602 1.697-2.586 3.991-2.586 6.516 0 0.066 0.001 0.131 0.002 0.196l-0-0.010c-0.15 2.64-0.15 10.561 0 13.202-0.001 0.059-0.002 0.129-0.002 0.199 0 2.521 0.985 4.811 2.591 6.508l-0.004-0.004c1.703 1.602 4.003 2.586 6.533 2.586 0.059 0 0.119-0.001 0.178-0.002l-0.009 0c2.64 0.15 10.561 0.15 13.202 0 0.059 0.001 0.129 0.002 0.199 0.002 2.521 0 4.811-0.985 6.508-2.591l-0.004 0.004c1.602-1.701 2.586-4 2.586-6.528 0-0.061-0.001-0.122-0.002-0.183l0 0.009c0.15-2.64 0.15-10.553 0-13.196zM28.481 25.432c-0.561 1.398-1.648 2.486-3.010 3.034l-0.036 0.013c-2.106 0.836-7.109 0.643-9.432 0.643s-7.333 0.186-9.432-0.643c-1.398-0.561-2.486-1.648-3.034-3.010l-0.013-0.036c-0.836-2.106-0.643-7.109-0.643-9.432s-0.186-7.333 0.643-9.432c0.561-1.398 1.648-2.486 3.010-3.034l0.036-0.013c2.106-0.836 7.109-0.643 9.432-0.643s7.333-0.186 9.432 0.643c1.398 0.561 2.486 1.648 3.034 3.010l0.013 0.036c0.836 2.106 0.643 7.109 0.643 9.432s0.192 7.333-0.643 9.432z"></path>
</svg>
