<!-- Generated by IcoMoon.io -->
<svg version="1.1" xmlns="http://www.w3.org/2000/svg" width="33" height="32" viewBox="0 0 33 32">
<title>linkedin-icon-1</title>
<path fill="#fff" d="M26.232 32v-11.541q0-4.88-3.609-4.88c-0.038-0.001-0.082-0.002-0.127-0.002-0.827 0-1.586 0.287-2.185 0.767l0.007-0.005c-0.595 0.49-1.063 1.114-1.358 1.827l-0.011 0.031c-0.166 0.459-0.262 0.989-0.262 1.541 0 0.070 0.002 0.139 0.005 0.208l-0-0.010v12.064h-7.154q0.065-9.761 0.065-15.159t-0.065-6.432h7.158v3.070c1.296-2.164 3.628-3.591 6.293-3.591 0.065 0 0.13 0.001 0.195 0.003l-0.010-0c0.093-0.004 0.202-0.006 0.311-0.006 2.233 0 4.243 0.953 5.646 2.473l0.005 0.005c1.422 1.767 2.283 4.038 2.283 6.51 0 0.263-0.010 0.523-0.029 0.781l0.002-0.034v12.381zM18.661 13.543h0.035v-0.065zM0.419 32v-21.591h7.155v21.594zM3.964 7.467c-0.051 0.002-0.11 0.004-0.169 0.004-1.045 0-1.996-0.407-2.701-1.072l0.002 0.002c-0.677-0.654-1.097-1.569-1.097-2.583 0-0.035 0.001-0.070 0.002-0.105l-0 0.005c-0.001-0.030-0.001-0.065-0.001-0.1 0-1.015 0.435-1.928 1.128-2.564l0.003-0.002c0.728-0.654 1.695-1.054 2.756-1.054 0.061 0 0.121 0.001 0.182 0.004l-0.009-0c0.054-0.003 0.117-0.004 0.181-0.004 1.038 0 1.983 0.395 2.695 1.042l-0.003-0.003c0.697 0.667 1.13 1.604 1.13 2.642 0 0.048-0.001 0.097-0.003 0.144l0-0.007c0.001 0.023 0.001 0.049 0.001 0.076 0 0.992-0.424 1.884-1.1 2.507l-0.002 0.002c-0.731 0.663-1.706 1.070-2.776 1.070-0.066 0-0.133-0.002-0.198-0.005l0.009 0z"></path>
</svg>
