<!-- Generated by IcoMoon.io -->
<svg version="1.1" xmlns="http://www.w3.org/2000/svg" width="46" height="32" viewBox="0 0 46 32">
<title>youtube</title>
<path fill="#fff" d="M44.561 5.007c-0.537-1.975-2.054-3.501-3.983-4.040l-0.040-0.010c-3.55-0.958-17.778-0.958-17.778-0.958s-14.232 0-17.778 0.958c-1.973 0.547-3.493 2.074-4.021 4.010l-0.009 0.040c-0.948 3.572-0.948 11.022-0.948 11.022s0 7.454 0.948 11.022c0.541 1.957 2.060 3.463 3.984 3.976l0.039 0.009c3.55 0.958 17.778 0.958 17.778 0.958s14.232 0 17.778-0.958c1.964-0.522 3.483-2.028 4.014-3.945l0.009-0.040c0.948-3.572 0.948-11.022 0.948-11.022s0-7.454-0.948-11.022zM18.101 22.799v-13.534l11.895 6.767-11.895 6.766z"></path>
</svg>
