<svg id="linkedin-icon-1" xmlns="http://www.w3.org/2000/svg" width="23.04" height="22.08" viewBox="0 0 23.04 22.08">
  <path id="Shape" d="M18.1,22.08V14.117q0-3.367-2.49-3.367a2.411,2.411,0,0,0-1.59.524,3.221,3.221,0,0,0-.945,1.282,3.215,3.215,0,0,0-.178,1.2V22.08H7.961q.045-6.735.045-10.46T7.961,7.182H12.9V9.3a5.044,5.044,0,0,1,4.47-2.476,5.3,5.3,0,0,1,4.114,1.706,7.192,7.192,0,0,1,1.557,5.007V22.08ZM12.876,9.345H12.9V9.3ZM.289,22.08V7.182H5.226v14.9ZM2.735,5.152A2.717,2.717,0,0,1,.756,4.416,2.477,2.477,0,0,1,0,2.565,2.4,2.4,0,0,1,.779.725,2.849,2.849,0,0,1,2.8,0,2.764,2.764,0,0,1,4.782.714,2.521,2.521,0,0,1,5.56,2.632,2.351,2.351,0,0,1,4.8,4.416a2.855,2.855,0,0,1-2.046.735Z" fill="#fff"/>
</svg>
