<svg id="twitter" xmlns="http://www.w3.org/2000/svg" width="21.888" height="17.664" viewBox="0 0 21.888 17.664">
  <path id="Path" d="M14.625,0V0h1.026l.375.074a4.032,4.032,0,0,1,.681.19A4.858,4.858,0,0,1,17.3.539a5.637,5.637,0,0,1,.519.32,3.19,3.19,0,0,1,.414.341.578.578,0,0,0,.566.094,7.615,7.615,0,0,0,.829-.245q.444-.157.878-.353t.529-.249l.1-.059,0-.006.02-.01.02-.01.02-.01.02-.01,0-.006.006,0,.006,0,0-.006.02-.006.02,0,0,.029-.006.029L21.256.4l-.01.029-.01.02-.01.02L21.217.5a.678.678,0,0,0-.02.078A3.278,3.278,0,0,1,21.01.97a4.9,4.9,0,0,1-.444.7,3.43,3.43,0,0,1-.478.533q-.213.182-.282.255a.846.846,0,0,1-.168.137l-.1.065-.02.01-.02.01,0,.006-.006,0-.006,0,0,.006-.02.01-.02.01,0,.006-.006,0-.006,0,0,.006,0,.006-.006,0-.006,0,0,.006h.1l.553-.118a9.942,9.942,0,0,0,1.056-.284l.533-.176.059-.02.03-.01.02-.01.02-.01.02-.01.02-.01.039-.006.039,0v.039l-.01,0-.01.006,0,.006-.006,0-.006,0,0,.006,0,.006-.006,0-.006,0,0,.006,0,.006-.006,0-.01.02-.01.02-.006,0-.251.333a2.76,2.76,0,0,1-.266.333q-.02.006-.055.059A5.634,5.634,0,0,1,20.8,3.4a9.91,9.91,0,0,1-.754.68.926.926,0,0,0-.375.737q-.006.435-.045.984T19.48,6.989a14.06,14.06,0,0,1-.336,1.441A13.042,13.042,0,0,1,18.592,10a12.186,12.186,0,0,1-.681,1.372q-.355.608-.651,1.029t-.6.794q-.306.373-.774.839t-.513.51q-.045.043-.387.322t-.73.561a8.453,8.453,0,0,1-.714.465q-.326.186-.786.425a9.376,9.376,0,0,1-.991.447q-.533.206-1.125.382a10.334,10.334,0,0,1-1.145.274q-.553.1-1.253.167l-.7.069v.01H6.257v-.01l-.168-.01q-.168-.01-.276-.02t-.819-.108q-.711-.1-1.115-.2t-1.2-.372a11.759,11.759,0,0,1-1.368-.555Q.74,16.115.6,16.041t-.32-.18L.1,15.753l0-.006-.006,0-.006,0,0-.006-.02-.01-.02-.01,0-.006-.006,0-.006,0,0-.006,0-.006-.006,0H0v-.039l.02,0,.02.006.089.01q.089.01.484.029t.839,0a8.883,8.883,0,0,0,.908-.088,10.288,10.288,0,0,0,1.1-.235,8.131,8.131,0,0,0,1.161-.4q.527-.231.75-.345a7.311,7.311,0,0,0,.675-.416l.454-.3,0-.006.006,0,.006,0,0-.006,0-.006.006,0,.006,0,0-.006.02-.006.02,0,0-.02.006-.02.006,0,0-.006-.158-.01-.306-.02a2.985,2.985,0,0,1-.464-.088,4.472,4.472,0,0,1-.681-.235,5.262,5.262,0,0,1-.711-.372,3.5,3.5,0,0,1-.5-.359q-.152-.141-.395-.4a3.97,3.97,0,0,1-.418-.535,4.8,4.8,0,0,1-.339-.633L2.457,10.8l-.01-.029-.01-.029-.006-.02,0-.02.03,0,.03.006.217.029a4.856,4.856,0,0,0,.681.02,5.307,5.307,0,0,0,.641-.039q.178-.029.217-.039l.039-.01.049-.01.049-.01,0-.006.006,0,.006,0,0-.006-.039-.01-.039-.01-.039-.01-.039-.01-.039-.01-.138-.039q-.1-.029-.533-.216a4.084,4.084,0,0,1-.691-.363,4.765,4.765,0,0,1-.489-.386,5.563,5.563,0,0,1-.507-.545,3.918,3.918,0,0,1-.493-.774,4.69,4.69,0,0,1-.326-.843,4.524,4.524,0,0,1-.142-.814L.849,6.2l.02,0,.02.006.02.01.02.01.02.01.02.01.306.137a3.878,3.878,0,0,0,.76.235q.454.1.543.108l.089.01h.178l0-.006-.006,0-.006,0,0-.006,0-.006-.006,0-.006,0,0-.006-.02-.01-.02-.01,0-.006-.006,0-.006,0,0-.006-.02-.01-.02-.01,0-.006L2.53,6.5a2.581,2.581,0,0,1-.339-.32q-.178-.2-.355-.412a3.178,3.178,0,0,1-.316-.461,5.568,5.568,0,0,1-.292-.623A4.4,4.4,0,0,1,1,3.931a4.291,4.291,0,0,1-.089-.755,4.721,4.721,0,0,1,.02-.637,4.14,4.14,0,0,1,.118-.6A4.639,4.639,0,0,1,1.3,1.235L1.47.863,1.48.833,1.49.8,1.5.8l0-.006,0-.006.006,0,.006,0,0,.006,0,.006L1.53.8l.006,0,0,.006,0,.006.006,0,.01.02.01.02.006,0,0,.006.266.294q.266.294.632.657a3.7,3.7,0,0,0,.4.376.288.288,0,0,1,.1.09,4.02,4.02,0,0,0,.395.347q.336.274.878.637t1.2.716a11.786,11.786,0,0,0,1.421.637q.76.284,1.066.372t1.046.225q.74.137,1.115.176t.513.045l.138,0,0-.029-.006-.029-.039-.245a4.577,4.577,0,0,1-.039-.686,4.47,4.47,0,0,1,.069-.814,4.794,4.794,0,0,1,.207-.755,4.018,4.018,0,0,1,.27-.614,6.033,6.033,0,0,1,.351-.523,4.238,4.238,0,0,1,.562-.608,4.15,4.15,0,0,1,.789-.559,5.149,5.149,0,0,1,.819-.372,3.837,3.837,0,0,1,.632-.167A2.208,2.208,0,0,0,14.625,0Z" fill="#fff"/>
</svg>
